<?xml version="1.0" encoding="utf-8"?>
<!-- Generator: Adobe Illustrator 22.1.0, SVG Export Plug-In . SVG Version: 6.00 Build 0)  -->
<svg version="1.1" id="圖層_1" xmlns="http://www.w3.org/2000/svg" xmlns:xlink="http://www.w3.org/1999/xlink" x="0px" y="0px"
	 viewBox="0 0 107.3 93.8" style="enable-background:new 0 0 107.3 93.8;" xml:space="preserve">
<style type="text/css">
	.st0{fill:#D9D28F;}
	.st1{fill:#0097D7;}
	.st2{fill:#EA6D8C;}
	.st3{fill:#8BC120;}
	.st4{fill:#D2D2D3;}
	.st5{fill:#CACBCB;}
	.st6{fill:#FFFFFF;}
</style>
<g>
	<g>
		<rect x="45.9" y="1.1" transform="matrix(0.991 -0.134 0.134 0.991 0.1354 6.3126)" width="2.1" height="2.1"/>
		<rect x="48" y="0.8" transform="matrix(0.991 -0.134 0.134 0.991 0.1924 6.5916)" width="2.1" height="2.1"/>
		<rect x="50.1" y="0.5" transform="matrix(0.991 -0.134 0.134 0.991 0.2495 6.8703)" width="2.1" height="2.1"/>
		<rect x="52.2" y="0.2" transform="matrix(0.991 -0.1341 0.1341 0.991 0.3068 7.152)" width="2.1" height="2.1"/>
		<rect x="44.1" y="3.5" transform="matrix(0.991 -0.134 0.134 0.991 -0.2006 6.0907)" width="2.1" height="2.1"/>
		<rect x="46.2" y="3.2" transform="matrix(0.991 -0.1341 0.1341 0.991 -0.1435 6.3716)" class="st0" width="2.1" height="2.1"/>
		
			<rect x="48.3" y="2.9" transform="matrix(0.991 -0.134 0.134 0.991 -8.652474e-02 6.6487)" class="st0" width="2.1" height="2.1"/>
		
			<rect x="50.4" y="2.6" transform="matrix(0.991 -0.134 0.134 0.991 -2.948728e-02 6.9276)" class="st0" width="2.1" height="2.1"/>
		<rect x="52.5" y="2.3" transform="matrix(0.991 -0.134 0.134 0.991 2.755354e-02 7.2066)" class="st0" width="2.1" height="2.1"/>
		<rect x="54.6" y="2.1" transform="matrix(0.991 -0.1341 0.1341 0.991 8.480191e-02 7.4882)" width="2.1" height="2.1"/>
		<rect x="44.4" y="5.6" transform="matrix(0.991 -0.134 0.134 0.991 -0.4796 6.1475)" width="2.1" height="2.1"/>
		<rect x="46.5" y="5.3" transform="matrix(0.991 -0.134 0.134 0.991 -0.4225 6.4267)" class="st0" width="2.1" height="2.1"/>
		<rect x="48.6" y="5" transform="matrix(0.991 -0.1341 0.1341 0.991 -0.3655 6.708)" width="2.1" height="2.1"/>
		<rect x="50.7" y="4.7" transform="matrix(0.991 -0.134 0.134 0.991 -0.3085 6.9847)" width="2.1" height="2.1"/>
		<rect x="52.8" y="4.4" transform="matrix(0.991 -0.134 0.134 0.991 -0.2514 7.2636)" class="st0" width="2.1" height="2.1"/>
		<rect x="54.9" y="4.2" transform="matrix(0.991 -0.134 0.134 0.991 -0.1944 7.5423)" width="2.1" height="2.1"/>
		<rect x="44.6" y="7.7" transform="matrix(0.991 -0.134 0.134 0.991 -0.7586 6.2048)" width="2.1" height="2.1"/>
		<rect x="46.7" y="7.4" transform="matrix(0.991 -0.134 0.134 0.991 -0.7015 6.4838)" class="st0" width="2.1" height="2.1"/>
		<rect x="48.8" y="7.1" transform="matrix(0.991 -0.134 0.134 0.991 -0.6445 6.7627)" width="2.1" height="2.1"/>
		<rect x="50.9" y="6.8" transform="matrix(0.991 -0.1341 0.1341 0.991 -0.5875 7.0442)" width="2.1" height="2.1"/>
		<rect x="53" y="6.5" transform="matrix(0.991 -0.134 0.134 0.991 -0.5304 7.3203)" class="st0" width="2.1" height="2.1"/>
		<rect x="55.1" y="6.3" transform="matrix(0.991 -0.134 0.134 0.991 -0.4734 7.5997)" width="2.1" height="2.1"/>
		<rect x="44.9" y="9.8" transform="matrix(0.991 -0.1341 0.1341 0.991 -1.0377 6.264)" width="2.1" height="2.1"/>
		<rect x="47" y="9.5" transform="matrix(0.991 -0.134 0.134 0.991 -0.9805 6.5408)" class="st0" width="2.1" height="2.1"/>
		<rect x="49.1" y="9.2" transform="matrix(0.991 -0.134 0.134 0.991 -0.9235 6.8198)" width="2.1" height="2.1"/>
		<rect x="51.2" y="8.9" transform="matrix(0.991 -0.134 0.134 0.991 -0.8664 7.0984)" width="2.1" height="2.1"/>
		<rect x="53.3" y="8.6" transform="matrix(0.991 -0.1341 0.1341 0.991 -0.8095 7.3803)" class="st0" width="2.1" height="2.1"/>
		<rect x="55.4" y="8.4" transform="matrix(0.991 -0.134 0.134 0.991 -0.7523 7.6567)" width="2.1" height="2.1"/>
		<rect x="34.7" y="13.3" transform="matrix(0.991 -0.134 0.134 0.991 -1.6017 4.924)" width="2.1" height="2.1"/>
		<rect x="36.8" y="13" transform="matrix(0.991 -0.134 0.134 0.991 -1.5447 5.203)" width="2.1" height="2.1"/>
		<rect x="38.9" y="12.7" transform="matrix(0.991 -0.1341 0.1341 0.991 -1.488 5.4836)" width="2.1" height="2.1"/>
		<rect x="41" y="12.4" transform="matrix(0.991 -0.134 0.134 0.991 -1.4306 5.7609)" width="2.1" height="2.1"/>
		<rect x="43.1" y="12.2" transform="matrix(0.991 -0.134 0.134 0.991 -1.3736 6.0399)" width="2.1" height="2.1"/>
		<rect x="45.2" y="11.9" transform="matrix(0.991 -0.134 0.134 0.991 -1.3165 6.3189)" class="st1" width="2.1" height="2.1"/>
		<rect x="47.3" y="11.6" transform="matrix(0.991 -0.1341 0.1341 0.991 -1.2597 6.5998)" class="st0" width="2.1" height="2.1"/>
		<rect x="49.4" y="11.3" transform="matrix(0.991 -0.134 0.134 0.991 -1.2024 6.8768)" class="st1" width="2.1" height="2.1"/>
		<rect x="51.5" y="11" transform="matrix(0.991 -0.134 0.134 0.991 -1.1454 7.1558)" class="st1" width="2.1" height="2.1"/>
		<rect x="53.6" y="10.7" transform="matrix(0.991 -0.1341 0.1341 0.991 -1.0885 7.4374)" class="st0" width="2.1" height="2.1"/>
		<rect x="55.7" y="10.5" transform="matrix(0.991 -0.134 0.134 0.991 -1.0313 7.7137)" class="st1" width="2.1" height="2.1"/>
		<rect x="57.8" y="10.2" transform="matrix(0.991 -0.134 0.134 0.991 -0.9742 7.9923)" width="2.1" height="2.1"/>
		<rect x="59.9" y="9.9" transform="matrix(0.991 -0.134 0.134 0.991 -0.9172 8.2717)" width="2.1" height="2.1"/>
		<rect x="32.9" y="15.7" transform="matrix(0.991 -0.1341 0.1341 0.991 -1.9383 4.7037)" width="2.1" height="2.1"/>
		<rect x="35" y="15.4" transform="matrix(0.991 -0.134 0.134 0.991 -1.8806 4.9808)" class="st1" width="2.1" height="2.1"/>
		<rect x="37.1" y="15.1" transform="matrix(0.991 -0.134 0.134 0.991 -1.8236 5.26)" class="st1" width="2.1" height="2.1"/>
		<rect x="39.2" y="14.8" transform="matrix(0.991 -0.1341 0.1341 0.991 -1.7671 5.5409)" class="st1" width="2.1" height="2.1"/>
		<rect x="41.3" y="14.5" transform="matrix(0.991 -0.134 0.134 0.991 -1.7096 5.818)" class="st1" width="2.1" height="2.1"/>
		<rect x="43.4" y="14.3" transform="matrix(0.991 -0.134 0.134 0.991 -1.6525 6.0969)" class="st1" width="2.1" height="2.1"/>
		<rect x="45.5" y="14" transform="matrix(0.991 -0.134 0.134 0.991 -1.5954 6.3756)" class="st1" width="2.1" height="2.1"/>
		<rect x="47.6" y="13.7" transform="matrix(0.991 -0.1341 0.1341 0.991 -1.5388 6.6572)" class="st0" width="2.1" height="2.1"/>
		<rect x="49.7" y="13.4" transform="matrix(0.991 -0.134 0.134 0.991 -1.4814 6.9339)" class="st1" width="2.1" height="2.1"/>
		<rect x="51.8" y="13.1" transform="matrix(0.991 -0.134 0.134 0.991 -1.4244 7.2128)" class="st1" width="2.1" height="2.1"/>
		<rect x="53.9" y="12.8" transform="matrix(0.991 -0.134 0.134 0.991 -1.3673 7.4918)" class="st0" width="2.1" height="2.1"/>
		<rect x="56" y="12.6" transform="matrix(0.991 -0.1341 0.1341 0.991 -1.3105 7.7731)" class="st1" width="2.1" height="2.1"/>
		<rect x="58.1" y="12.3" transform="matrix(0.991 -0.134 0.134 0.991 -1.2532 8.0498)" class="st1" width="2.1" height="2.1"/>
		<rect x="60.2" y="12" transform="matrix(0.991 -0.134 0.134 0.991 -1.1962 8.3287)" class="st1" width="2.1" height="2.1"/>
		<rect x="31.1" y="18.1" transform="matrix(0.991 -0.134 0.134 0.991 -2.2737 4.4801)" width="2.1" height="2.1"/>
		<rect x="33.2" y="17.8" transform="matrix(0.991 -0.1341 0.1341 0.991 -2.2173 4.7606)" class="st1" width="2.1" height="2.1"/>
		<rect x="35.3" y="17.5" transform="matrix(0.991 -0.134 0.134 0.991 -2.1597 5.0381)" class="st1" width="2.1" height="2.1"/>
		<rect x="37.4" y="17.2" transform="matrix(0.991 -0.134 0.134 0.991 -2.1026 5.3171)" class="st1" width="2.1" height="2.1"/>
		<rect x="39.5" y="16.9" transform="matrix(0.991 -0.134 0.134 0.991 -2.0456 5.596)" class="st1" width="2.1" height="2.1"/>
		<rect x="41.6" y="16.6" transform="matrix(0.991 -0.1341 0.1341 0.991 -1.9891 5.8771)" class="st1" width="2.1" height="2.1"/>
		<rect x="43.7" y="16.4" transform="matrix(0.991 -0.134 0.134 0.991 -1.9314 6.1537)" class="st1" width="2.1" height="2.1"/>
		<rect x="45.8" y="16.1" transform="matrix(0.991 -0.134 0.134 0.991 -1.8745 6.4329)" class="st1" width="2.1" height="2.1"/>
		<rect x="47.9" y="15.8" transform="matrix(0.991 -0.134 0.134 0.991 -1.8174 6.7119)" class="st0" width="2.1" height="2.1"/>
		<rect x="50" y="15.5" transform="matrix(0.991 -0.1341 0.1341 0.991 -1.7608 6.9934)" class="st1" width="2.1" height="2.1"/>
		<rect x="52.1" y="15.2" transform="matrix(0.991 -0.134 0.134 0.991 -1.7033 7.2699)" class="st1" width="2.1" height="2.1"/>
		<rect x="54.2" y="14.9" transform="matrix(0.991 -0.134 0.134 0.991 -1.6462 7.5485)" class="st0" width="2.1" height="2.1"/>
		<rect x="56.3" y="14.7" transform="matrix(0.991 -0.134 0.134 0.991 -1.5893 7.8278)" class="st1" width="2.1" height="2.1"/>
		<rect x="58.4" y="14.4" transform="matrix(0.991 -0.1341 0.1341 0.991 -1.5326 8.1096)" class="st1" width="2.1" height="2.1"/>
		<rect x="60.5" y="14.1" transform="matrix(0.991 -0.134 0.134 0.991 -1.4752 8.3858)" class="st1" width="2.1" height="2.1"/>
		<rect x="31.4" y="20.2" transform="matrix(0.991 -0.134 0.134 0.991 -2.5526 4.5369)" width="2.1" height="2.1"/>
		<rect x="33.5" y="19.9" transform="matrix(0.991 -0.134 0.134 0.991 -2.4957 4.8161)" class="st2" width="2.1" height="2.1"/>
		<rect x="35.6" y="19.6" transform="matrix(0.991 -0.1341 0.1341 0.991 -2.4394 5.0969)" class="st2" width="2.1" height="2.1"/>
		<rect x="37.7" y="19.3" transform="matrix(0.991 -0.134 0.134 0.991 -2.3816 5.3741)" class="st2" width="2.1" height="2.1"/>
		<rect x="39.8" y="19" transform="matrix(0.991 -0.134 0.134 0.991 -2.3246 5.6531)" class="st2" width="2.1" height="2.1"/>
		<rect x="41.9" y="18.7" transform="matrix(0.991 -0.134 0.134 0.991 -2.2674 5.9318)" class="st2" width="2.1" height="2.1"/>
		<rect x="44" y="18.5" transform="matrix(0.991 -0.1341 0.1341 0.991 -2.2111 6.2132)" class="st2" width="2.1" height="2.1"/>
		<rect x="46.1" y="18.2" transform="matrix(0.991 -0.134 0.134 0.991 -2.1534 6.49)" class="st2" width="2.1" height="2.1"/>
		<rect x="48.2" y="17.9" transform="matrix(0.991 -0.134 0.134 0.991 -2.0964 6.769)" class="st0" width="2.1" height="2.1"/>
		<rect x="50.3" y="17.6" transform="matrix(0.991 -0.134 0.134 0.991 -2.0393 7.0476)" class="st2" width="2.1" height="2.1"/>
		<rect x="52.4" y="17.3" transform="matrix(0.991 -0.1341 0.1341 0.991 -1.9828 7.3295)" class="st2" width="2.1" height="2.1"/>
		<rect x="54.5" y="17" transform="matrix(0.991 -0.134 0.134 0.991 -1.9253 7.6059)" class="st0" width="2.1" height="2.1"/>
		<rect x="56.6" y="16.8" transform="matrix(0.991 -0.134 0.134 0.991 -1.8682 7.8849)" class="st2" width="2.1" height="2.1"/>
		<rect x="58.7" y="16.5" transform="matrix(0.991 -0.134 0.134 0.991 -1.8112 8.1638)" class="st2" width="2.1" height="2.1"/>
		<rect x="60.8" y="16.2" transform="matrix(0.991 -0.1341 0.1341 0.991 -1.7545 8.4454)" class="st2" width="2.1" height="2.1"/>
		<rect x="31.6" y="22.3" transform="matrix(0.991 -0.134 0.134 0.991 -2.8317 4.5942)" width="2.1" height="2.1"/>
		<rect x="33.7" y="22" transform="matrix(0.991 -0.134 0.134 0.991 -2.7747 4.8732)" class="st2" width="2.1" height="2.1"/>
		<rect x="35.8" y="21.7" transform="matrix(0.991 -0.134 0.134 0.991 -2.7176 5.1522)" class="st2" width="2.1" height="2.1"/>
		<rect x="37.9" y="21.4" transform="matrix(0.991 -0.1341 0.1341 0.991 -2.6613 5.4328)" class="st2" width="2.1" height="2.1"/>
		<rect x="40" y="21.1" transform="matrix(0.991 -0.134 0.134 0.991 -2.6035 5.7101)" class="st2" width="2.1" height="2.1"/>
		<rect x="42.1" y="20.8" transform="matrix(0.991 -0.134 0.134 0.991 -2.5465 5.9891)" class="st2" width="2.1" height="2.1"/>
		<rect x="44.2" y="20.6" transform="matrix(0.991 -0.134 0.134 0.991 -2.4894 6.2681)" class="st2" width="2.1" height="2.1"/>
		<rect x="46.3" y="20.3" transform="matrix(0.991 -0.1341 0.1341 0.991 -2.4331 6.5494)" class="st2" width="2.1" height="2.1"/>
		<rect x="48.4" y="20" transform="matrix(0.991 -0.134 0.134 0.991 -2.3753 6.8257)" class="st0" width="2.1" height="2.1"/>
		<rect x="50.5" y="19.7" transform="matrix(0.991 -0.134 0.134 0.991 -2.3183 7.105)" class="st2" width="2.1" height="2.1"/>
		<rect x="52.6" y="19.4" transform="matrix(0.991 -0.134 0.134 0.991 -2.2613 7.384)" class="st2" width="2.1" height="2.1"/>
		<rect x="54.7" y="19.1" transform="matrix(0.991 -0.1341 0.1341 0.991 -2.2048 7.6656)" class="st0" width="2.1" height="2.1"/>
		<rect x="56.8" y="18.9" transform="matrix(0.991 -0.134 0.134 0.991 -2.1472 7.9419)" class="st2" width="2.1" height="2.1"/>
		<rect x="58.9" y="18.6" transform="matrix(0.991 -0.134 0.134 0.991 -2.0901 8.2205)" class="st2" width="2.1" height="2.1"/>
		<rect x="61" y="18.3" transform="matrix(0.991 -0.134 0.134 0.991 -2.0331 8.4999)" class="st2" width="2.1" height="2.1"/>
		<rect x="31.9" y="24.4" transform="matrix(0.991 -0.1341 0.1341 0.991 -3.1116 4.6529)" width="2.1" height="2.1"/>
		<rect x="34" y="24.1" transform="matrix(0.991 -0.134 0.134 0.991 -3.0536 4.9302)" class="st2" width="2.1" height="2.1"/>
		<rect x="36.1" y="23.8" transform="matrix(0.991 -0.134 0.134 0.991 -2.9965 5.2089)" class="st2" width="2.1" height="2.1"/>
		<rect x="38.2" y="23.5" transform="matrix(0.991 -0.134 0.134 0.991 -2.9395 5.4882)" class="st2" width="2.1" height="2.1"/>
		<rect x="40.3" y="23.2" transform="matrix(0.991 -0.1341 0.1341 0.991 -2.8834 5.7692)" class="st2" width="2.1" height="2.1"/>
		<rect x="42.4" y="22.9" transform="matrix(0.991 -0.134 0.134 0.991 -2.8255 6.0461)" class="st2" width="2.1" height="2.1"/>
		<rect x="44.5" y="22.7" transform="matrix(0.991 -0.134 0.134 0.991 -2.7684 6.3251)" class="st2" width="2.1" height="2.1"/>
		<rect x="46.6" y="22.4" transform="matrix(0.991 -0.134 0.134 0.991 -2.7113 6.6037)" class="st2" width="2.1" height="2.1"/>
		<rect x="48.7" y="22.1" transform="matrix(0.991 -0.1341 0.1341 0.991 -2.6551 6.8855)" class="st0" width="2.1" height="2.1"/>
		<rect x="50.8" y="21.8" transform="matrix(0.991 -0.134 0.134 0.991 -2.5973 7.162)" class="st2" width="2.1" height="2.1"/>
		<rect x="52.9" y="21.5" transform="matrix(0.991 -0.134 0.134 0.991 -2.5403 7.441)" class="st2" width="2.1" height="2.1"/>
		<rect x="55" y="21.2" transform="matrix(0.991 -0.134 0.134 0.991 -2.4832 7.72)" class="st0" width="2.1" height="2.1"/>
		<rect x="57.1" y="21" transform="matrix(0.991 -0.1341 0.1341 0.991 -2.4267 8.0014)" class="st2" width="2.1" height="2.1"/>
		<rect x="59.2" y="20.7" transform="matrix(0.991 -0.134 0.134 0.991 -2.3691 8.2779)" class="st2" width="2.1" height="2.1"/>
		<rect x="61.3" y="20.4" transform="matrix(0.991 -0.134 0.134 0.991 -2.3121 8.5569)" class="st2" width="2.1" height="2.1"/>
		<rect x="32.2" y="26.5" transform="matrix(0.991 -0.134 0.134 0.991 -3.3896 4.7083)" width="2.1" height="2.1"/>
		<rect x="34.3" y="26.2" transform="matrix(0.991 -0.1341 0.1341 0.991 -3.3335 4.9888)" class="st3" width="2.1" height="2.1"/>
		<rect x="36.4" y="25.9" transform="matrix(0.991 -0.134 0.134 0.991 -3.2756 5.2662)" class="st3" width="2.1" height="2.1"/>
		<rect x="38.5" y="25.6" transform="matrix(0.991 -0.134 0.134 0.991 -3.2185 5.5452)" class="st3" width="2.1" height="2.1"/>
		<rect x="40.6" y="25.3" transform="matrix(0.991 -0.134 0.134 0.991 -3.1615 5.8242)" class="st3" width="2.1" height="2.1"/>
		<rect x="42.7" y="25" transform="matrix(0.991 -0.1341 0.1341 0.991 -3.1054 6.1054)" class="st3" width="2.1" height="2.1"/>
		<rect x="44.8" y="24.8" transform="matrix(0.991 -0.134 0.134 0.991 -3.0473 6.3818)" class="st3" width="2.1" height="2.1"/>
		<rect x="46.9" y="24.5" transform="matrix(0.991 -0.134 0.134 0.991 -2.9904 6.6611)" class="st3" width="2.1" height="2.1"/>
		<rect x="49" y="24.2" transform="matrix(0.991 -0.134 0.134 0.991 -2.9333 6.9401)" class="st0" width="2.1" height="2.1"/>
		<rect x="51.1" y="23.9" transform="matrix(0.991 -0.1341 0.1341 0.991 -2.8771 7.2216)" class="st3" width="2.1" height="2.1"/>
		<rect x="53.2" y="23.6" transform="matrix(0.991 -0.134 0.134 0.991 -2.8191 7.4977)" class="st3" width="2.1" height="2.1"/>
		<rect x="55.3" y="23.3" transform="matrix(0.991 -0.134 0.134 0.991 -2.7622 7.777)" class="st0" width="2.1" height="2.1"/>
		<rect x="57.4" y="23.1" transform="matrix(0.991 -0.1341 0.1341 0.991 -2.7059 8.0588)" class="st3" width="2.1" height="2.1"/>
		<rect x="59.5" y="22.8" transform="matrix(0.991 -0.134 0.134 0.991 -2.6481 8.335)" class="st3" width="2.1" height="2.1"/>
		<rect x="61.6" y="22.5" transform="matrix(0.991 -0.134 0.134 0.991 -2.5911 8.6139)" class="st3" width="2.1" height="2.1"/>
		<rect x="32.5" y="28.6" transform="matrix(0.991 -0.134 0.134 0.991 -3.6685 4.7651)" width="2.1" height="2.1"/>
		<rect x="34.6" y="28.3" transform="matrix(0.991 -0.134 0.134 0.991 -3.6116 5.0443)" class="st3" width="2.1" height="2.1"/>
		<rect x="36.7" y="28" transform="matrix(0.991 -0.1341 0.1341 0.991 -3.5556 5.3252)" class="st3" width="2.1" height="2.1"/>
		<rect x="38.8" y="27.7" transform="matrix(0.991 -0.134 0.134 0.991 -3.4975 5.6023)" class="st3" width="2.1" height="2.1"/>
		<rect x="40.9" y="27.4" transform="matrix(0.991 -0.134 0.134 0.991 -3.4403 5.8809)" class="st3" width="2.1" height="2.1"/>
		<rect x="43" y="27.1" transform="matrix(0.991 -0.1341 0.1341 0.991 -3.3844 6.1624)" class="st3" width="2.1" height="2.1"/>
		<rect x="45.1" y="26.9" transform="matrix(0.991 -0.134 0.134 0.991 -3.3264 6.4392)" class="st3" width="2.1" height="2.1"/>
		<rect x="47.2" y="26.6" transform="matrix(0.991 -0.134 0.134 0.991 -3.2693 6.7182)" class="st3" width="2.1" height="2.1"/>
		<rect x="49.3" y="26.3" transform="matrix(0.991 -0.134 0.134 0.991 -3.2123 6.9971)" class="st0" width="2.1" height="2.1"/>
		<rect x="51.4" y="26" transform="matrix(0.991 -0.1341 0.1341 0.991 -3.156 7.2783)" class="st3" width="2.1" height="2.1"/>
		<rect x="53.5" y="25.7" transform="matrix(0.991 -0.134 0.134 0.991 -3.0982 7.5551)" class="st3" width="2.1" height="2.1"/>
		<rect x="55.6" y="25.4" transform="matrix(0.991 -0.134 0.134 0.991 -3.0412 7.8341)" class="st0" width="2.1" height="2.1"/>
		<rect x="57.7" y="25.2" transform="matrix(0.991 -0.134 0.134 0.991 -2.9841 8.113)" class="st3" width="2.1" height="2.1"/>
		<rect x="59.8" y="24.9" transform="matrix(0.991 -0.1341 0.1341 0.991 -2.9279 8.395)" class="st3" width="2.1" height="2.1"/>
		<rect x="61.9" y="24.6" transform="matrix(0.991 -0.134 0.134 0.991 -2.8699 8.6706)" class="st3" width="2.1" height="2.1"/>
		<rect x="32.8" y="30.7" transform="matrix(0.991 -0.134 0.134 0.991 -3.9476 4.8224)" width="2.1" height="2.1"/>
		<rect x="34.9" y="30.4" transform="matrix(0.991 -0.134 0.134 0.991 -3.8906 5.1013)" class="st3" width="2.1" height="2.1"/>
		<rect x="37" y="30.1" transform="matrix(0.991 -0.1341 0.1341 0.991 -3.8347 5.3823)" class="st3" width="2.1" height="2.1"/>
		<rect x="39.1" y="29.8" transform="matrix(0.991 -0.134 0.134 0.991 -3.7763 5.659)" class="st3" width="2.1" height="2.1"/>
		<rect x="41.2" y="29.5" transform="matrix(0.991 -0.134 0.134 0.991 -3.7194 5.9383)" class="st3" width="2.1" height="2.1"/>
		<rect x="43.3" y="29.2" transform="matrix(0.991 -0.134 0.134 0.991 -3.6624 6.2172)" class="st3" width="2.1" height="2.1"/>
		<rect x="45.4" y="29" transform="matrix(0.991 -0.1341 0.1341 0.991 -3.6064 6.4986)" class="st3" width="2.1" height="2.1"/>
		<rect x="47.5" y="28.7" transform="matrix(0.991 -0.134 0.134 0.991 -3.5483 6.7752)" class="st3" width="2.1" height="2.1"/>
		<rect x="49.6" y="28.4" transform="matrix(0.991 -0.134 0.134 0.991 -3.4911 7.0538)" class="st0" width="2.1" height="2.1"/>
		<rect x="51.7" y="28.1" transform="matrix(0.991 -0.134 0.134 0.991 -3.4342 7.3331)" class="st3" width="2.1" height="2.1"/>
		<rect x="53.8" y="27.8" transform="matrix(0.991 -0.1341 0.1341 0.991 -3.3782 7.6148)" class="st3" width="2.1" height="2.1"/>
		<rect x="55.9" y="27.5" transform="matrix(0.991 -0.134 0.134 0.991 -3.3201 7.8911)" class="st0" width="2.1" height="2.1"/>
		<rect x="58" y="27.3" transform="matrix(0.991 -0.134 0.134 0.991 -3.2631 8.1701)" class="st3" width="2.1" height="2.1"/>
		<rect x="60.1" y="27" transform="matrix(0.991 -0.134 0.134 0.991 -3.2059 8.4486)" class="st3" width="2.1" height="2.1"/>
		<rect x="62.2" y="26.7" transform="matrix(0.991 -0.1341 0.1341 0.991 -3.1499 8.7311)" class="st3" width="2.1" height="2.1"/>
		<rect x="33.1" y="32.8" transform="matrix(0.991 -0.134 0.134 0.991 -4.2266 4.8794)" width="2.1" height="2.1"/>
		<rect x="35.2" y="32.5" transform="matrix(0.991 -0.134 0.134 0.991 -4.1695 5.1584)" class="st1" width="2.1" height="2.1"/>
		<rect x="37.3" y="32.2" transform="matrix(0.991 -0.134 0.134 0.991 -4.1123 5.4371)" class="st1" width="2.1" height="2.1"/>
		<rect x="39.4" y="31.9" transform="matrix(0.991 -0.1341 0.1341 0.991 -4.0567 5.7184)" class="st1" width="2.1" height="2.1"/>
		<rect x="41.5" y="31.6" transform="matrix(0.991 -0.134 0.134 0.991 -3.9984 5.9953)" class="st1" width="2.1" height="2.1"/>
		<rect x="43.6" y="31.3" transform="matrix(0.991 -0.134 0.134 0.991 -3.9414 6.2743)" class="st1" width="2.1" height="2.1"/>
		<rect x="45.7" y="31.1" transform="matrix(0.991 -0.134 0.134 0.991 -3.8843 6.5533)" class="st1" width="2.1" height="2.1"/>
		<rect x="47.8" y="30.8" transform="matrix(0.991 -0.1341 0.1341 0.991 -3.8283 6.8344)" class="st1" width="2.1" height="2.1"/>
		<rect x="49.9" y="30.5" transform="matrix(0.991 -0.134 0.134 0.991 -3.7702 7.1112)" class="st0" width="2.1" height="2.1"/>
		<rect x="52" y="30.2" transform="matrix(0.991 -0.134 0.134 0.991 -3.7132 7.3902)" class="st1" width="2.1" height="2.1"/>
		<rect x="54.1" y="29.9" transform="matrix(0.991 -0.134 0.134 0.991 -3.6562 7.6692)" class="st1" width="2.1" height="2.1"/>
		<rect x="56.2" y="29.6" transform="matrix(0.991 -0.1341 0.1341 0.991 -3.6 7.9506)" class="st0" width="2.1" height="2.1"/>
		<rect x="58.3" y="29.4" transform="matrix(0.991 -0.134 0.134 0.991 -3.5421 8.2271)" class="st1" width="2.1" height="2.1"/>
		<rect x="60.4" y="29.1" transform="matrix(0.991 -0.134 0.134 0.991 -3.485 8.5061)" class="st1" width="2.1" height="2.1"/>
		<rect x="62.5" y="28.8" transform="matrix(0.991 -0.134 0.134 0.991 -3.428 8.7851)" class="st1" width="2.1" height="2.1"/>
		<rect x="33.3" y="34.9" transform="matrix(0.991 -0.1341 0.1341 0.991 -4.507 4.9383)" width="2.1" height="2.1"/>
		<rect x="35.4" y="34.6" transform="matrix(0.991 -0.134 0.134 0.991 -4.4483 5.2152)" class="st1" width="2.1" height="2.1"/>
		<rect x="37.5" y="34.3" transform="matrix(0.991 -0.134 0.134 0.991 -4.3915 5.4944)" class="st1" width="2.1" height="2.1"/>
		<rect x="39.6" y="34" transform="matrix(0.991 -0.134 0.134 0.991 -4.3344 5.7734)" class="st1" width="2.1" height="2.1"/>
		<rect x="41.7" y="33.7" transform="matrix(0.991 -0.1341 0.1341 0.991 -4.2787 6.0546)" class="st1" width="2.1" height="2.1"/>
		<rect x="43.8" y="33.4" transform="matrix(0.991 -0.134 0.134 0.991 -4.2202 6.331)" class="st1" width="2.1" height="2.1"/>
		<rect x="45.9" y="33.2" transform="matrix(0.991 -0.134 0.134 0.991 -4.1633 6.6103)" class="st1" width="2.1" height="2.1"/>
		<rect x="48.1" y="32.9" transform="matrix(0.991 -0.134 0.134 0.991 -4.1063 6.8893)" class="st1" width="2.1" height="2.1"/>
		<rect x="50.2" y="32.6" transform="matrix(0.991 -0.1341 0.1341 0.991 -4.0504 7.1708)" class="st0" width="2.1" height="2.1"/>
		<rect x="52.3" y="32.3" transform="matrix(0.991 -0.134 0.134 0.991 -3.9922 7.4472)" class="st1" width="2.1" height="2.1"/>
		<rect x="54.4" y="32" transform="matrix(0.991 -0.134 0.134 0.991 -3.935 7.7258)" class="st1" width="2.1" height="2.1"/>
		<rect x="56.5" y="31.7" transform="matrix(0.991 -0.134 0.134 0.991 -3.8781 8.0052)" class="st0" width="2.1" height="2.1"/>
		<rect x="58.6" y="31.5" transform="matrix(0.991 -0.1341 0.1341 0.991 -3.8222 8.2871)" class="st1" width="2.1" height="2.1"/>
		<rect x="60.7" y="31.2" transform="matrix(0.991 -0.134 0.134 0.991 -3.764 8.5631)" class="st1" width="2.1" height="2.1"/>
		<rect x="62.8" y="30.9" transform="matrix(0.991 -0.134 0.134 0.991 -3.707 8.8421)" class="st1" width="2.1" height="2.1"/>
		<rect x="33.6" y="37" transform="matrix(0.991 -0.134 0.134 0.991 -4.7843 4.9932)" width="2.1" height="2.1"/>
		<rect x="35.7" y="36.7" transform="matrix(0.991 -0.1341 0.1341 0.991 -4.729 5.2744)" class="st1" width="2.1" height="2.1"/>
		<rect x="37.8" y="36.4" transform="matrix(0.991 -0.134 0.134 0.991 -4.6704 5.5514)" class="st1" width="2.1" height="2.1"/>
		<rect x="39.9" y="36.1" transform="matrix(0.991 -0.134 0.134 0.991 -4.6134 5.8304)" class="st1" width="2.1" height="2.1"/>
		<rect x="42" y="35.8" transform="matrix(0.991 -0.134 0.134 0.991 -4.5562 6.1091)" class="st1" width="2.1" height="2.1"/>
		<rect x="44.1" y="35.5" transform="matrix(0.991 -0.1341 0.1341 0.991 -4.5007 6.3907)" class="st1" width="2.1" height="2.1"/>
		<rect x="46.2" y="35.3" transform="matrix(0.991 -0.134 0.134 0.991 -4.4423 6.6673)" class="st1" width="2.1" height="2.1"/>
		<rect x="48.3" y="35" transform="matrix(0.991 -0.134 0.134 0.991 -4.3852 6.9463)" class="st1" width="2.1" height="2.1"/>
		<rect x="50.4" y="34.7" transform="matrix(0.991 -0.134 0.134 0.991 -4.3282 7.2253)" class="st0" width="2.1" height="2.1"/>
		<rect x="52.5" y="34.4" transform="matrix(0.991 -0.1341 0.1341 0.991 -4.2723 7.5066)" class="st1" width="2.1" height="2.1"/>
		<rect x="54.6" y="34.1" transform="matrix(0.991 -0.134 0.134 0.991 -4.2141 7.7832)" class="st1" width="2.1" height="2.1"/>
		<rect x="56.7" y="33.8" transform="matrix(0.991 -0.134 0.134 0.991 -4.1571 8.0622)" class="st0" width="2.1" height="2.1"/>
		<rect x="58.8" y="33.6" transform="matrix(0.991 -0.134 0.134 0.991 -4.1 8.3412)" class="st1" width="2.1" height="2.1"/>
		<rect x="60.9" y="33.3" transform="matrix(0.991 -0.1341 0.1341 0.991 -4.0442 8.6232)" class="st1" width="2.1" height="2.1"/>
		<rect x="63" y="33" transform="matrix(0.991 -0.134 0.134 0.991 -3.9858 8.8987)" class="st1" width="2.1" height="2.1"/>
		<rect x="33.9" y="39.1" transform="matrix(0.991 -0.134 0.134 0.991 -5.0635 5.0505)" width="2.1" height="2.1"/>
		<rect x="36" y="38.8" transform="matrix(0.991 -0.134 0.134 0.991 -5.0065 5.3295)" class="st2" width="2.1" height="2.1"/>
		<rect x="38.1" y="38.5" transform="matrix(0.991 -0.1341 0.1341 0.991 -4.951 5.6105)" class="st2" width="2.1" height="2.1"/>
		<rect x="40.2" y="38.2" transform="matrix(0.991 -0.134 0.134 0.991 -4.8922 5.8872)" class="st2" width="2.1" height="2.1"/>
		<rect x="42.3" y="37.9" transform="matrix(0.991 -0.134 0.134 0.991 -4.8353 6.1664)" class="st2" width="2.1" height="2.1"/>
		<rect x="44.4" y="37.6" transform="matrix(0.991 -0.134 0.134 0.991 -4.7783 6.4454)" class="st2" width="2.1" height="2.1"/>
		<rect x="46.5" y="37.4" transform="matrix(0.991 -0.1341 0.1341 0.991 -4.7227 6.7268)" class="st2" width="2.1" height="2.1"/>
		<rect x="48.6" y="37.1" transform="matrix(0.991 -0.134 0.134 0.991 -4.6642 7.0034)" class="st2" width="2.1" height="2.1"/>
		<rect x="50.7" y="36.8" transform="matrix(0.991 -0.134 0.134 0.991 -4.607 7.282)" class="st0" width="2.1" height="2.1"/>
		<rect x="52.8" y="36.5" transform="matrix(0.991 -0.134 0.134 0.991 -4.5501 7.5613)" class="st2" width="2.1" height="2.1"/>
		<rect x="54.9" y="36.2" transform="matrix(0.991 -0.1341 0.1341 0.991 -4.4945 7.8431)" class="st2" width="2.1" height="2.1"/>
		<rect x="57" y="35.9" transform="matrix(0.991 -0.134 0.134 0.991 -4.436 8.1193)" class="st0" width="2.1" height="2.1"/>
		<rect x="59.1" y="35.7" transform="matrix(0.991 -0.134 0.134 0.991 -4.379 8.3982)" class="st2" width="2.1" height="2.1"/>
		<rect x="61.2" y="35.4" transform="matrix(0.991 -0.1341 0.1341 0.991 -4.3231 8.6799)" class="st2" width="2.1" height="2.1"/>
		<rect x="63.3" y="35.1" transform="matrix(0.991 -0.134 0.134 0.991 -4.2649 8.9562)" class="st2" width="2.1" height="2.1"/>
		<rect x="36.3" y="40.9" transform="matrix(0.991 -0.134 0.134 0.991 -5.2854 5.3865)" class="st2" width="2.1" height="2.1"/>
		<rect x="38.4" y="40.6" transform="matrix(0.991 -0.134 0.134 0.991 -5.2282 5.6652)" class="st2" width="2.1" height="2.1"/>
		<rect x="40.5" y="40.3" transform="matrix(0.991 -0.1341 0.1341 0.991 -5.173 5.9467)" class="st2" width="2.1" height="2.1"/>
		<rect x="42.6" y="40" transform="matrix(0.991 -0.134 0.134 0.991 -5.1143 6.2235)" class="st2" width="2.1" height="2.1"/>
		<rect x="44.7" y="39.7" transform="matrix(0.991 -0.134 0.134 0.991 -5.0573 6.5024)" class="st2" width="2.1" height="2.1"/>
		<rect x="46.8" y="39.5" transform="matrix(0.991 -0.1341 0.1341 0.991 -5.0018 6.7839)" class="st2" width="2.1" height="2.1"/>
		<rect x="48.9" y="39.2" transform="matrix(0.991 -0.134 0.134 0.991 -4.943 7.06)" class="st2" width="2.1" height="2.1"/>
		<rect x="51" y="38.9" transform="matrix(0.991 -0.134 0.134 0.991 -4.8861 7.3394)" class="st0" width="2.1" height="2.1"/>
		<rect x="53.1" y="38.6" transform="matrix(0.991 -0.134 0.134 0.991 -4.8291 7.6183)" class="st2" width="2.1" height="2.1"/>
		<rect x="55.2" y="38.3" transform="matrix(0.991 -0.1341 0.1341 0.991 -4.7735 7.9002)" class="st2" width="2.1" height="2.1"/>
		<rect x="57.3" y="38" transform="matrix(0.991 -0.134 0.134 0.991 -4.7148 8.1759)" class="st0" width="2.1" height="2.1"/>
		<rect x="59.4" y="37.8" transform="matrix(0.991 -0.134 0.134 0.991 -4.658 8.4553)" class="st2" width="2.1" height="2.1"/>
		<rect x="61.5" y="37.5" transform="matrix(0.991 -0.134 0.134 0.991 -4.6009 8.7342)" class="st2" width="2.1" height="2.1"/>
		<rect x="63.6" y="37.2" transform="matrix(0.991 -0.1341 0.1341 0.991 -4.5453 9.0165)" class="st2" width="2.1" height="2.1"/>
		<rect x="62" y="9.6" transform="matrix(0.991 -0.1341 0.1341 0.991 -0.8603 8.5537)" width="2.1" height="2.1"/>
		<rect x="64.1" y="9.3" transform="matrix(0.991 -0.134 0.134 0.991 -0.8031 8.8296)" width="2.1" height="2.1"/>
		<rect x="66.2" y="9" transform="matrix(0.991 -0.134 0.134 0.991 -0.7461 9.1086)" width="2.1" height="2.1"/>
		<rect x="62.3" y="11.7" transform="matrix(0.991 -0.134 0.134 0.991 -1.1392 8.6077)" class="st1" width="2.1" height="2.1"/>
		<rect x="64.4" y="11.4" transform="matrix(0.991 -0.1341 0.1341 0.991 -1.0823 8.8898)" class="st1" width="2.1" height="2.1"/>
		<rect x="66.5" y="11.1" transform="matrix(0.991 -0.134 0.134 0.991 -1.0251 9.1652)" class="st1" width="2.1" height="2.1"/>
		<rect x="68.6" y="10.9" transform="matrix(0.991 -0.134 0.134 0.991 -0.968 9.4446)" width="2.1" height="2.1"/>
		<rect x="62.6" y="13.8" transform="matrix(0.991 -0.134 0.134 0.991 -1.4181 8.6643)" class="st1" width="2.1" height="2.1"/>
		<rect x="64.7" y="13.5" transform="matrix(0.991 -0.134 0.134 0.991 -1.3611 8.9437)" class="st1" width="2.1" height="2.1"/>
		<rect x="66.8" y="13.2" transform="matrix(0.991 -0.1341 0.1341 0.991 -1.3043 9.2259)" class="st1" width="2.1" height="2.1"/>
		<rect x="68.9" y="13" transform="matrix(0.991 -0.134 0.134 0.991 -1.247 9.5017)" class="st1" width="2.1" height="2.1"/>
		<rect x="71" y="12.7" transform="matrix(0.991 -0.134 0.134 0.991 -1.19 9.7806)" width="2.1" height="2.1"/>
		<rect x="62.9" y="15.9" transform="matrix(0.991 -0.134 0.134 0.991 -1.6971 8.7218)" class="st2" width="2.1" height="2.1"/>
		<rect x="65" y="15.6" transform="matrix(0.991 -0.134 0.134 0.991 -1.6401 9.0008)" class="st2" width="2.1" height="2.1"/>
		<rect x="67.1" y="15.3" transform="matrix(0.991 -0.134 0.134 0.991 -1.583 9.2797)" class="st2" width="2.1" height="2.1"/>
		<rect x="69.2" y="15.1" transform="matrix(0.991 -0.1341 0.1341 0.991 -1.5263 9.5621)" class="st2" width="2.1" height="2.1"/>
		<rect x="71.3" y="14.8" transform="matrix(0.991 -0.134 0.134 0.991 -1.4689 9.8372)" width="2.1" height="2.1"/>
		<rect x="63.1" y="18" transform="matrix(0.991 -0.1341 0.1341 0.991 -1.9766 8.7819)" class="st2" width="2.1" height="2.1"/>
		<rect x="65.2" y="17.7" transform="matrix(0.991 -0.134 0.134 0.991 -1.919 9.0578)" class="st2" width="2.1" height="2.1"/>
		<rect x="67.3" y="17.4" transform="matrix(0.991 -0.134 0.134 0.991 -1.862 9.3368)" class="st2" width="2.1" height="2.1"/>
		<rect x="69.4" y="17.2" transform="matrix(0.991 -0.1341 0.1341 0.991 -1.8053 9.6187)" class="st2" width="2.1" height="2.1"/>
		<rect x="71.5" y="16.9" transform="matrix(0.991 -0.134 0.134 0.991 -1.7479 9.8947)" width="2.1" height="2.1"/>
		<rect x="63.4" y="20.1" transform="matrix(0.991 -0.1341 0.1341 0.991 -2.2556 8.839)" class="st2" width="2.1" height="2.1"/>
		<rect x="65.5" y="19.8" transform="matrix(0.991 -0.134 0.134 0.991 -2.1979 9.1144)" class="st2" width="2.1" height="2.1"/>
		<rect x="67.6" y="19.5" transform="matrix(0.991 -0.134 0.134 0.991 -2.141 9.3938)" class="st2" width="2.1" height="2.1"/>
		<rect x="69.7" y="19.3" transform="matrix(0.991 -0.134 0.134 0.991 -2.0839 9.6728)" class="st2" width="2.1" height="2.1"/>
		<rect x="71.8" y="19" transform="matrix(0.991 -0.1341 0.1341 0.991 -2.0274 9.9553)" width="2.1" height="2.1"/>
		<rect x="63.7" y="22.2" transform="matrix(0.991 -0.134 0.134 0.991 -2.5339 8.8925)" class="st3" width="2.1" height="2.1"/>
		<rect x="65.8" y="21.9" transform="matrix(0.991 -0.1341 0.1341 0.991 -2.4776 9.1751)" class="st3" width="2.1" height="2.1"/>
		<rect x="67.9" y="21.6" transform="matrix(0.991 -0.134 0.134 0.991 -2.4199 9.4509)" class="st3" width="2.1" height="2.1"/>
		<rect x="70" y="21.4" transform="matrix(0.991 -0.134 0.134 0.991 -2.3629 9.7298)" class="st3" width="2.1" height="2.1"/>
		<rect x="72.1" y="21.1" transform="matrix(0.991 -0.134 0.134 0.991 -2.3059 10.0088)" width="2.1" height="2.1"/>
		<rect x="64" y="24.3" transform="matrix(0.991 -0.134 0.134 0.991 -2.813 8.95)" class="st3" width="2.1" height="2.1"/>
		<rect x="66.1" y="24" transform="matrix(0.991 -0.134 0.134 0.991 -2.756 9.2289)" class="st3" width="2.1" height="2.1"/>
		<rect x="68.2" y="23.7" transform="matrix(0.991 -0.1341 0.1341 0.991 -2.6996 9.5113)" class="st3" width="2.1" height="2.1"/>
		<rect x="70.3" y="23.5" transform="matrix(0.991 -0.134 0.134 0.991 -2.6419 9.7869)" class="st3" width="2.1" height="2.1"/>
		<rect x="72.4" y="23.2" transform="matrix(0.991 -0.134 0.134 0.991 -2.5848 10.0654)" width="2.1" height="2.1"/>
		<rect x="64.3" y="26.4" transform="matrix(0.991 -0.134 0.134 0.991 -3.092 9.007)" class="st3" width="2.1" height="2.1"/>
		<rect x="66.4" y="26.1" transform="matrix(0.991 -0.134 0.134 0.991 -3.0349 9.286)" class="st3" width="2.1" height="2.1"/>
		<rect x="68.5" y="25.8" transform="matrix(0.991 -0.134 0.134 0.991 -2.9778 9.5645)" class="st3" width="2.1" height="2.1"/>
		<rect x="70.6" y="25.6" transform="matrix(0.991 -0.1341 0.1341 0.991 -2.9216 9.8474)" class="st3" width="2.1" height="2.1"/>
		<rect x="72.7" y="25.3" transform="matrix(0.991 -0.134 0.134 0.991 -2.8638 10.1229)" width="2.1" height="2.1"/>
		<rect x="64.6" y="28.5" transform="matrix(0.991 -0.1341 0.1341 0.991 -3.3719 9.0673)" class="st1" width="2.1" height="2.1"/>
		<rect x="66.7" y="28.2" transform="matrix(0.991 -0.134 0.134 0.991 -3.3138 9.3426)" class="st1" width="2.1" height="2.1"/>
		<rect x="68.8" y="27.9" transform="matrix(0.991 -0.134 0.134 0.991 -3.2569 9.622)" class="st1" width="2.1" height="2.1"/>
		<rect x="70.9" y="27.7" transform="matrix(0.991 -0.134 0.134 0.991 -3.1998 9.901)" class="st1" width="2.1" height="2.1"/>
		<rect x="73" y="27.4" transform="matrix(0.991 -0.1341 0.1341 0.991 -3.1436 10.1835)" width="2.1" height="2.1"/>
		<rect x="64.9" y="30.6" transform="matrix(0.991 -0.134 0.134 0.991 -3.6498 9.1206)" class="st1" width="2.1" height="2.1"/>
		<rect x="67" y="30.3" transform="matrix(0.991 -0.1341 0.1341 0.991 -3.5939 9.4034)" class="st1" width="2.1" height="2.1"/>
		<rect x="69.1" y="30" transform="matrix(0.991 -0.134 0.134 0.991 -3.5358 9.679)" class="st1" width="2.1" height="2.1"/>
		<rect x="71.2" y="29.8" transform="matrix(0.991 -0.134 0.134 0.991 -3.4788 9.958)" class="st1" width="2.1" height="2.1"/>
		<rect x="73.3" y="29.5" transform="matrix(0.991 -0.1341 0.1341 0.991 -3.4227 10.2406)" width="2.1" height="2.1"/>
		<rect x="65.1" y="32.7" transform="matrix(0.991 -0.134 0.134 0.991 -3.9289 9.1781)" class="st1" width="2.1" height="2.1"/>
		<rect x="67.2" y="32.4" transform="matrix(0.991 -0.1341 0.1341 0.991 -3.873 9.4605)" class="st1" width="2.1" height="2.1"/>
		<rect x="69.3" y="32.1" transform="matrix(0.991 -0.134 0.134 0.991 -3.8148 9.7361)" class="st1" width="2.1" height="2.1"/>
		<rect x="71.4" y="31.9" transform="matrix(0.991 -0.134 0.134 0.991 -3.7578 10.015)" class="st1" width="2.1" height="2.1"/>
		<rect x="73.5" y="31.6" transform="matrix(0.991 -0.134 0.134 0.991 -3.7006 10.2935)" width="2.1" height="2.1"/>
		<rect x="65.4" y="34.8" transform="matrix(0.991 -0.134 0.134 0.991 -4.2079 9.2352)" class="st2" width="2.1" height="2.1"/>
		<rect x="67.5" y="34.5" transform="matrix(0.991 -0.134 0.134 0.991 -4.1508 9.5141)" class="st2" width="2.1" height="2.1"/>
		<rect x="69.6" y="34.2" transform="matrix(0.991 -0.1341 0.1341 0.991 -4.0948 9.7961)" class="st2" width="2.1" height="2.1"/>
		<rect x="71.7" y="34" transform="matrix(0.991 -0.134 0.134 0.991 -4.0368 10.0721)" class="st2" width="2.1" height="2.1"/>
		<rect x="73.8" y="33.7" transform="matrix(0.991 -0.134 0.134 0.991 -3.9797 10.3511)" width="2.1" height="2.1"/>
		<rect x="34.2" y="41.2" transform="matrix(0.991 -0.134 0.134 0.991 -5.3425 5.1076)" width="2.1" height="2.1"/>
		<rect x="74.1" y="35.8" transform="matrix(0.991 -0.134 0.134 0.991 -4.2587 10.4081)" width="2.1" height="2.1"/>
		<rect x="65.7" y="36.9" transform="matrix(0.991 -0.134 0.134 0.991 -4.4868 9.2922)" class="st2" width="2.1" height="2.1"/>
		<rect x="67.8" y="36.6" transform="matrix(0.991 -0.134 0.134 0.991 -4.4296 9.5707)" class="st2" width="2.1" height="2.1"/>
		<rect x="69.9" y="36.3" transform="matrix(0.991 -0.134 0.134 0.991 -4.3728 9.8501)" class="st2" width="2.1" height="2.1"/>
		<rect x="72" y="36.1" transform="matrix(0.991 -0.1341 0.1341 0.991 -4.317 10.1327)" class="st2" width="2.1" height="2.1"/>
		<rect x="36.6" y="43" transform="matrix(0.991 -0.134 0.134 0.991 -5.5642 5.4433)" width="2.1" height="2.1"/>
		<rect x="38.7" y="42.7" transform="matrix(0.991 -0.134 0.134 0.991 -5.5074 5.7226)" class="st2" width="2.1" height="2.1"/>
		<rect x="40.8" y="42.4" transform="matrix(0.991 -0.1341 0.1341 0.991 -5.4521 6.0038)" class="st2" width="2.1" height="2.1"/>
		<rect x="42.9" y="42.1" transform="matrix(0.991 -0.134 0.134 0.991 -5.3933 6.2805)" class="st2" width="2.1" height="2.1"/>
		<rect x="45" y="41.8" transform="matrix(0.991 -0.134 0.134 0.991 -5.336 6.5592)" class="st2" width="2.1" height="2.1"/>
		<rect x="47.1" y="41.6" transform="matrix(0.991 -0.134 0.134 0.991 -5.2792 6.8385)" class="st2" width="2.1" height="2.1"/>
		<rect x="49.2" y="41.3" transform="matrix(0.991 -0.1341 0.1341 0.991 -5.2238 7.12)" class="st2" width="2.1" height="2.1"/>
		<rect x="51.3" y="41" transform="matrix(0.991 -0.134 0.134 0.991 -5.1651 7.3964)" class="st0" width="2.1" height="2.1"/>
		<rect x="53.4" y="40.7" transform="matrix(0.991 -0.134 0.134 0.991 -5.1081 7.6754)" class="st2" width="2.1" height="2.1"/>
		<rect x="55.5" y="40.4" transform="matrix(0.991 -0.134 0.134 0.991 -5.0508 7.954)" class="st2" width="2.1" height="2.1"/>
		<g>
			<rect x="45.2" y="11.9" transform="matrix(0.991 -0.134 0.134 0.991 -1.3165 6.3189)" class="st4" width="2.1" height="2.1"/>
			<rect x="51.5" y="11" transform="matrix(0.991 -0.134 0.134 0.991 -1.1454 7.1558)" class="st4" width="2.1" height="2.1"/>
			<rect x="45.5" y="14" transform="matrix(0.991 -0.134 0.134 0.991 -1.5954 6.3756)" class="st4" width="2.1" height="2.1"/>
			<rect x="51.8" y="13.1" transform="matrix(0.991 -0.134 0.134 0.991 -1.4244 7.2128)" class="st4" width="2.1" height="2.1"/>
			<rect x="45.8" y="16.1" transform="matrix(0.991 -0.134 0.134 0.991 -1.8745 6.4329)" class="st4" width="2.1" height="2.1"/>
			<rect x="52.1" y="15.2" transform="matrix(0.991 -0.134 0.134 0.991 -1.7033 7.2699)" class="st4" width="2.1" height="2.1"/>
			<rect x="46.1" y="18.2" transform="matrix(0.991 -0.134 0.134 0.991 -2.1534 6.49)" class="st4" width="2.1" height="2.1"/>
			<rect x="52.4" y="17.3" transform="matrix(0.991 -0.1341 0.1341 0.991 -1.9828 7.3295)" class="st4" width="2.1" height="2.1"/>
			<rect x="46.3" y="20.3" transform="matrix(0.991 -0.1341 0.1341 0.991 -2.4331 6.5494)" class="st4" width="2.1" height="2.1"/>
			<rect x="52.6" y="19.4" transform="matrix(0.991 -0.134 0.134 0.991 -2.2613 7.384)" class="st4" width="2.1" height="2.1"/>
			<rect x="46.6" y="22.4" transform="matrix(0.991 -0.134 0.134 0.991 -2.7113 6.6037)" class="st4" width="2.1" height="2.1"/>
			<rect x="52.9" y="21.5" transform="matrix(0.991 -0.134 0.134 0.991 -2.5403 7.441)" class="st4" width="2.1" height="2.1"/>
			<rect x="46.9" y="24.5" transform="matrix(0.991 -0.134 0.134 0.991 -2.9904 6.6611)" class="st4" width="2.1" height="2.1"/>
			<rect x="53.2" y="23.6" transform="matrix(0.991 -0.134 0.134 0.991 -2.8191 7.4977)" class="st4" width="2.1" height="2.1"/>
			<rect x="47.2" y="26.6" transform="matrix(0.991 -0.134 0.134 0.991 -3.2693 6.7182)" class="st4" width="2.1" height="2.1"/>
			<rect x="53.5" y="25.7" transform="matrix(0.991 -0.134 0.134 0.991 -3.0982 7.5551)" class="st4" width="2.1" height="2.1"/>
			<rect x="47.5" y="28.7" transform="matrix(0.991 -0.134 0.134 0.991 -3.5483 6.7752)" class="st4" width="2.1" height="2.1"/>
			<rect x="53.8" y="27.8" transform="matrix(0.991 -0.1341 0.1341 0.991 -3.3782 7.6148)" class="st4" width="2.1" height="2.1"/>
			<rect x="47.8" y="30.8" transform="matrix(0.991 -0.1341 0.1341 0.991 -3.8283 6.8344)" class="st4" width="2.1" height="2.1"/>
			<rect x="54.1" y="29.9" transform="matrix(0.991 -0.134 0.134 0.991 -3.6562 7.6692)" class="st4" width="2.1" height="2.1"/>
			<rect x="48.1" y="32.9" transform="matrix(0.991 -0.134 0.134 0.991 -4.1063 6.8893)" class="st4" width="2.1" height="2.1"/>
			<rect x="54.4" y="32" transform="matrix(0.991 -0.134 0.134 0.991 -3.935 7.7258)" class="st4" width="2.1" height="2.1"/>
			<rect x="48.3" y="35" transform="matrix(0.991 -0.134 0.134 0.991 -4.3852 6.9463)" class="st4" width="2.1" height="2.1"/>
			<rect x="54.6" y="34.1" transform="matrix(0.991 -0.134 0.134 0.991 -4.2141 7.7832)" class="st4" width="2.1" height="2.1"/>
			<rect x="48.6" y="37.1" transform="matrix(0.991 -0.134 0.134 0.991 -4.6642 7.0034)" class="st4" width="2.1" height="2.1"/>
			<rect x="54.9" y="36.2" transform="matrix(0.991 -0.1341 0.1341 0.991 -4.4945 7.8431)" class="st4" width="2.1" height="2.1"/>
			<rect x="48.9" y="39.2" transform="matrix(0.991 -0.134 0.134 0.991 -4.943 7.06)" class="st4" width="2.1" height="2.1"/>
			<rect x="55.2" y="38.3" transform="matrix(0.991 -0.1341 0.1341 0.991 -4.7735 7.9002)" class="st4" width="2.1" height="2.1"/>
			<rect x="49.2" y="41.3" transform="matrix(0.991 -0.1341 0.1341 0.991 -5.2238 7.12)" class="st4" width="2.1" height="2.1"/>
			<rect x="55.5" y="40.4" transform="matrix(0.991 -0.134 0.134 0.991 -5.0508 7.954)" class="st4" width="2.1" height="2.1"/>
		</g>
		<rect x="57.6" y="40.1" transform="matrix(0.991 -0.1341 0.1341 0.991 -4.9955 8.2363)" class="st0" width="2.1" height="2.1"/>
		<rect x="59.7" y="39.9" transform="matrix(0.991 -0.134 0.134 0.991 -4.9369 8.5123)" class="st2" width="2.1" height="2.1"/>
		<rect x="61.8" y="39.6" transform="matrix(0.991 -0.134 0.134 0.991 -4.8799 8.7913)" class="st2" width="2.1" height="2.1"/>
		<rect x="63.9" y="39.3" transform="matrix(0.991 -0.134 0.134 0.991 -4.8229 9.0703)" class="st2" width="2.1" height="2.1"/>
		<rect x="39" y="44.8" transform="matrix(0.991 -0.134 0.134 0.991 -5.7863 5.7796)" width="2.1" height="2.1"/>
		<rect x="41.1" y="44.5" transform="matrix(0.991 -0.134 0.134 0.991 -5.7293 6.0586)" width="2.1" height="2.1"/>
		<rect x="43.2" y="44.2" transform="matrix(0.991 -0.1341 0.1341 0.991 -5.6738 6.3396)" width="2.1" height="2.1"/>
		<rect x="45.3" y="43.9" transform="matrix(0.991 -0.134 0.134 0.991 -5.6152 6.6165)" width="2.1" height="2.1"/>
		<rect x="47.4" y="43.7" transform="matrix(0.991 -0.134 0.134 0.991 -5.5582 6.8955)" width="2.1" height="2.1"/>
		<rect x="49.5" y="43.4" transform="matrix(0.991 -0.134 0.134 0.991 -5.5011 7.1745)" width="2.1" height="2.1"/>
		<rect x="51.6" y="43.1" transform="matrix(0.991 -0.1341 0.1341 0.991 -5.4458 7.4562)" width="2.1" height="2.1"/>
		<rect x="53.7" y="42.8" transform="matrix(0.991 -0.134 0.134 0.991 -5.3868 7.732)" width="2.1" height="2.1"/>
		<rect x="55.8" y="42.5" transform="matrix(0.991 -0.134 0.134 0.991 -5.33 8.0114)" width="2.1" height="2.1"/>
		<rect x="57.9" y="42.2" transform="matrix(0.991 -0.134 0.134 0.991 -5.273 8.2904)" width="2.1" height="2.1"/>
		<rect x="60" y="42" transform="matrix(0.991 -0.1341 0.1341 0.991 -5.2175 8.5724)" width="2.1" height="2.1"/>
		<rect x="62.1" y="41.7" transform="matrix(0.991 -0.134 0.134 0.991 -5.1589 8.8483)" width="2.1" height="2.1"/>
		<rect x="64.2" y="41.4" transform="matrix(0.991 -0.134 0.134 0.991 -5.1016 9.1269)" width="2.1" height="2.1"/>
		<rect x="66" y="39" transform="matrix(0.991 -0.1341 0.1341 0.991 -4.7671 9.3521)" class="st2" width="2.1" height="2.1"/>
		<rect x="68.1" y="38.7" transform="matrix(0.991 -0.134 0.134 0.991 -4.7088 9.6282)" class="st2" width="2.1" height="2.1"/>
		<rect x="70.2" y="38.4" transform="matrix(0.991 -0.134 0.134 0.991 -4.6517 9.9072)" class="st2" width="2.1" height="2.1"/>
		<rect x="72.3" y="38.2" transform="matrix(0.991 -0.134 0.134 0.991 -4.5947 10.1862)" width="2.1" height="2.1"/>
		<rect x="66.3" y="41.1" transform="matrix(0.991 -0.134 0.134 0.991 -5.0448 9.4063)" width="2.1" height="2.1"/>
		<rect x="68.4" y="40.8" transform="matrix(0.991 -0.1341 0.1341 0.991 -4.9893 9.6887)" width="2.1" height="2.1"/>
		<rect x="70.5" y="40.5" transform="matrix(0.991 -0.134 0.134 0.991 -4.9307 9.9642)" width="2.1" height="2.1"/>
	</g>
	<g>
		<g>
			<rect x="93.5" y="42.4" class="st5" width="3.5" height="2.8"/>
			<rect x="11.2" y="72.9" class="st5" width="3.5" height="2.8"/>
			<polygon class="st5" points="103.8,59.5 100.4,59.5 100.4,56.6 96.9,56.6 96.9,53.8 96.9,50.9 100.4,50.9 100.4,48.1 96.9,48.1 
				93.5,48.1 93.5,45.2 90,45.2 90,42.4 18.1,42.4 14.6,42.4 11.2,42.4 11.2,45.2 7.7,45.2 7.7,48.1 11.2,48.1 14.6,48.1 14.6,50.9 
				11.2,50.9 11.2,53.8 11.2,53.8 7.7,53.8 4.2,53.8 4.2,56.6 0.8,56.6 0.8,59.5 4.2,59.5 7.7,59.5 7.7,62.3 11.2,62.3 11.2,65.2 
				11.2,65.2 11.2,67.2 7.7,67.2 7.7,70.1 11.2,70.1 14.6,70.1 14.6,72.9 18.1,72.9 18.1,75.8 90,75.8 93.5,75.8 96.9,75.8 
				96.9,72.9 100.4,72.9 100.4,70.1 96.9,70.1 93.5,70.1 93.5,67.2 90,67.2 90,65.2 93.5,65.2 93.5,67.2 96.9,67.2 96.9,65.2 
				100.4,65.2 103.8,65.2 103.8,62.3 107.3,62.3 107.3,59.5 			"/>
			<rect x="100.4" y="53.8" class="st5" width="3.5" height="2.8"/>
			<rect x="4.2" y="62.3" class="st5" width="3.5" height="2.8"/>
		</g>
		<g>
			<rect x="92.7" y="40.8" width="3.5" height="2.8"/>
			<rect x="10.4" y="71.3" width="3.5" height="2.8"/>
			<polygon points="103.1,57.9 99.6,57.9 99.6,55 96.1,55 96.1,52.2 96.1,52.2 96.1,49.3 99.6,49.3 99.6,46.5 96.1,46.5 92.7,46.5 
				92.7,43.6 89.2,43.6 89.2,40.8 17.3,40.8 13.8,40.8 10.4,40.8 10.4,43.6 6.9,43.6 6.9,46.5 10.4,46.5 13.8,46.5 13.8,49.3 
				10.4,49.3 10.4,52.2 6.9,52.2 3.5,52.2 3.5,55 0,55 0,57.9 3.5,57.9 6.9,57.9 6.9,60.7 10.4,60.7 10.4,62.8 10.4,63.6 10.4,65.6 
				6.9,65.6 6.9,68.5 10.4,68.5 13.8,68.5 13.8,71.3 17.3,71.3 17.3,74.2 89.2,74.2 92.7,74.2 96.1,74.2 96.1,71.3 99.6,71.3 
				99.6,68.5 96.1,68.5 92.7,68.5 92.7,65.6 89.2,65.6 89.2,63.6 92.7,63.6 92.7,65.6 96.1,65.6 96.1,63.6 99.6,63.6 103.1,63.6 
				103.1,60.7 106.5,60.7 106.5,57.9 			"/>
			<rect x="99.6" y="52.2" width="3.5" height="2.9"/>
			<rect x="3.5" y="60.7" width="3.5" height="2.8"/>
		</g>
	</g>
	<g>
		<path class="st6" d="M36.5,46.3h4.1V47h-4.1v0.3h3.2v0.7h-7.6v-0.7h3.1V47h-4v-0.8h4v-0.5h1.2V46.3z M36.5,54.1v0.3h4v0.8h-9.2
			v-0.8h3.9v-0.3h-2.9v-0.7h2.9v-0.3c-0.3,0-0.7,0-1.3,0c-0.8,0-1.5,0-1.8,0l-0.1-0.7c0.3,0,0.8,0,1.5,0c0.1-0.2,0.2-0.3,0.2-0.4
			h-1.4v-0.2h-1.1v-1.6h9v1.6h-1.2v-0.8h-6.8v0.3h6.7V52h-0.7c0.6,0.3,1,0.6,1.3,0.8l-0.7,0.5h0.5v0.7H36.5z M32.5,48.4h6.9V50h-6.9
			V48.4z M38.2,49.4V49h-4.5v0.4H38.2z M37,52h-1.7L35,52.4c1.1,0,1.9,0,2.5,0c-0.2-0.1-0.4-0.2-0.6-0.3L37,52z M36.5,53.1v0.3H39
			c-0.2-0.1-0.3-0.2-0.5-0.4h-0.3l0,0h-0.6l0,0h-0.6l0,0H36.5z"/>
		<path class="st6" d="M45.3,48.2v-2.3h1.3v9.5h-1.3v-2.2c-0.3,0.1-1.1,0.5-2.3,1L42.5,53c0.6-0.2,1.6-0.5,2.8-1v-2.5h-2.5v-1.3
			H45.3z M49.7,54.1h1.1c0.2,0,0.3-0.1,0.4-0.4c0.1-0.3,0.1-0.8,0.2-1.7c0.3,0.2,0.7,0.4,1.1,0.6c0,0,0,0,0.1,0
			c-0.1,1.2-0.2,1.9-0.5,2.3c-0.2,0.3-0.6,0.5-1.1,0.5h-1.4c-0.6,0-1.1-0.2-1.3-0.5c-0.2-0.3-0.3-0.8-0.3-1.4v-7.5h1.3v3.1
			c0.8-0.5,1.5-1,2.2-1.6l0.9,1.1c-0.8,0.6-1.8,1.2-3.1,1.8v3.1c0,0.3,0,0.6,0.1,0.6C49.5,54.1,49.6,54.1,49.7,54.1z"/>
		<path class="st6" d="M62.6,51.9v0.5H64v0.9h-1.3v1.1c0,0.5-0.1,0.8-0.3,0.9c-0.1,0-0.1,0.1-0.2,0.1c-0.3,0.1-0.9,0.2-1.7,0.2
			c0-0.3-0.2-0.6-0.3-1c0.3,0,0.7,0,1.2,0c0.1,0,0.2-0.1,0.2-0.2v-1h-2.3c0.5,0.5,0.8,0.8,1,1.1l-1,0.6c-0.3-0.5-0.7-0.9-1.2-1.4
			l0.5-0.3H57v-0.9h4.4v-0.5c-1.3,0-2.7,0.1-4.1,0.1l-0.1-0.9c0.5,0,1.4,0,2.7,0v-0.4h-2.3v-2.9h2.3v-0.4h-2.7v-0.5
			c-0.2,0.5-0.5,1-0.7,1.5v7.2h-1.2v-5.4c-0.3,0.3-0.5,0.6-0.7,0.8c-0.1-0.4-0.3-0.8-0.6-1.2c0,0,0-0.1-0.1-0.1
			c0.8-0.8,1.5-1.9,2.1-3.2c0.1-0.3,0.2-0.5,0.3-0.8l1.2,0.4l-0.1,0.3h2.6v-0.6h1.2v0.6h2.7v0.9h-2.7v0.4h2.4v2.9h-0.5
			c0.5,0.4,0.8,0.8,1,1.1l-0.9,0.5c0-0.1-0.1-0.2-0.2-0.3L62.6,51.9z M58.8,48.4v0.4h1.2v-0.4H58.8z M58.8,49.9h1.2v-0.4h-1.2V49.9z
			 M62.4,48.4h-1.2v0.4h1.2V48.4z M62.4,49.9v-0.4h-1.2v0.4H62.4z M61.2,50.6V51l1,0c-0.1-0.1-0.2-0.2-0.4-0.3l0.1,0H61.2z"/>
		<path class="st6" d="M66.1,51.9l1,0.2c-0.1,1.1-0.3,2.1-0.6,2.7c-0.3-0.2-0.7-0.3-1-0.5C65.8,53.8,66,52.9,66.1,51.9z M68.9,51.2
			l-0.5,0v4.3h-1.1v-4.2l-1.5,0.1l-0.1-1.1l0.7,0c0.3-0.3,0.4-0.5,0.5-0.7c-0.3-0.5-0.7-0.9-1.2-1.4l0.6-0.9c0,0,0.1,0.1,0.2,0.2
			c0.3-0.6,0.6-1.2,0.8-1.8l1.1,0.4c-0.6,1.1-1,1.8-1.2,2.1c0.2,0.3,0.4,0.4,0.4,0.4c0.4-0.6,0.7-1.2,0.9-1.7l1,0.5
			c-0.7,1.1-1.3,2-2,2.8l1,0c-0.1-0.2-0.2-0.4-0.4-0.8l0.8-0.3c0.5,0.9,0.8,1.6,0.9,2.2L69,51.8C69,51.5,68.9,51.4,68.9,51.2z
			 M69.9,53.7L69,54c-0.1-0.5-0.3-1.2-0.6-2l0.9-0.3C69.6,52.5,69.8,53.1,69.9,53.7z M70.8,51H72c0,1.3-0.2,2.3-0.5,2.9
			c-0.3,0.7-0.9,1.3-1.8,1.7c-0.2-0.3-0.4-0.6-0.6-0.9c0,0-0.1-0.1-0.1-0.1c0.7-0.3,1.2-0.8,1.5-1.4C70.6,52.8,70.7,52.1,70.8,51z
			 M69.8,50.7l-0.1-1.1c0.2,0,0.4,0,0.8-0.1c0.2-0.6,0.4-1.1,0.5-1.5h-1.4V47h2.1v-1.2H73V47h2.3v1.1h-2.9c-0.1,0.3-0.3,0.7-0.6,1.4
			c0.2,0,0.8-0.1,1.7-0.1c-0.1-0.2-0.3-0.4-0.5-0.7l1-0.5c0.8,1,1.3,1.8,1.6,2.4l-1,0.6c-0.1-0.2-0.2-0.4-0.4-0.7
			c-0.5,0-1.3,0.1-2.4,0.2C70.8,50.7,70.2,50.7,69.8,50.7z M74,54.4h0.3c0.1,0,0.1-0.1,0.2-0.2c0-0.2,0-0.5,0.1-1.1
			c0.2,0.2,0.6,0.4,1,0.5c0,0,0,0,0,0c-0.1,0.9-0.2,1.5-0.5,1.7c-0.2,0.1-0.4,0.2-0.7,0.2h-0.7c-0.5,0-0.8-0.1-1-0.4
			c-0.1-0.2-0.2-0.5-0.2-1v-3h1.2v3C73.9,54.2,73.9,54.4,74,54.4C74,54.4,74,54.4,74,54.4z"/>
		<path class="st6" d="M46.5,61.3h-4.2v1.1h3.3v3.5c0,0.5-0.1,0.9-0.4,1.1c0,0-0.1,0.1-0.1,0.1c-0.3,0.1-1,0.2-1.9,0.2
			c-0.1-0.4-0.2-0.8-0.4-1.2c0.3,0,0.8,0,1.3,0c0.1,0,0.2-0.1,0.2-0.2v-2.3h-2v5H41v-5h-1.8v3.7h-1.3v-4.9H41v-1.1H37v-1.2H41v-1.4
			h1.3v1.4h4.2V61.3z"/>
		<path class="st6" d="M58.2,64H54c0,0,0,0.1,0,0.1c0,0,0,0.1-0.1,0.1c0,0,0,0.1-0.1,0.1c0,0,0,0.1-0.1,0.1l-0.1,0.1H58
			c0,0,0,0.2,0,0.4c-0.1,1.7-0.3,2.8-0.5,3.1c0,0,0,0.1-0.1,0.1c-0.2,0.2-0.4,0.3-0.7,0.4c-0.3,0-0.6,0-1.1,0c0-0.4-0.1-0.7-0.3-1
			c0.2,0,0.5,0,0.7,0c0.1,0,0.2,0,0.3-0.1c0.2-0.2,0.3-0.8,0.4-2h-0.4c-0.4,1-0.9,1.8-1.5,2.6c-0.2,0.2-0.4,0.4-0.6,0.5
			c-0.2-0.3-0.5-0.5-0.9-0.7c0.7-0.4,1.3-1.1,1.8-2.1c0.1-0.1,0.1-0.2,0.2-0.3h-0.6c-0.5,0.8-1.1,1.5-1.8,2.2
			c-0.2,0.2-0.4,0.3-0.6,0.5c-0.3-0.3-0.5-0.6-0.8-0.7c0.7-0.4,1.4-0.9,2-1.7c0.1-0.1,0.1-0.2,0.2-0.2h-0.6c-0.4,0.4-0.8,0.8-1.2,1
			c-0.2-0.2-0.4-0.5-0.7-0.7c0,0-0.1,0-0.1-0.1c-0.3,0.1-0.7,0.3-1.2,0.6c-0.5,0.2-0.8,0.4-1,0.5l-0.5-1.3c0.2-0.1,0.4-0.2,0.8-0.3
			c0.2-0.1,0.4-0.2,0.5-0.2v-3h-1.1v-1.2h1.1v-2.1h1.1v2.1h1v1.2h-1v2.5l0.8-0.4l0.2,0.9c0.4-0.3,0.7-0.7,1-1.1h-1.2v-1.1h6.6V64z
			 M57.5,59v3.5h-5V59H57.5z M56.3,60.4v-0.5h-2.7v0.5H56.3z M56.3,61.7v-0.5h-2.7v0.5H56.3z"/>
		<path class="st6" d="M69.5,60.5h-1.8c0.1,0.2,0.2,0.3,0.3,0.5c0.1,0.1,0.2,0.3,0.2,0.4l-0.8,0.3h1.8V66c0,0.3,0,0.5-0.1,0.7
			c-0.1,0.2-0.2,0.3-0.4,0.4c-0.2,0.1-0.4,0.2-0.7,0.2c-0.3,0-0.6,0-1,0c0-0.2-0.1-0.4-0.1-0.6c-0.1-0.2-0.1-0.4-0.2-0.6
			c0.1,0,0.3,0,0.4,0c0.1,0,0.3,0,0.4,0c0.1,0,0.2,0,0.2,0c0.1,0,0.1,0,0.1,0c0.1,0,0.2-0.1,0.2-0.2v-3.2h-1.6v5.6h-1.2v-6.7h1.9
			c-0.1-0.2-0.2-0.4-0.3-0.6c-0.1-0.2-0.3-0.4-0.4-0.6H66c-0.3,0.5-0.6,0.8-1,1.2c-0.1-0.1-0.1-0.1-0.2-0.2
			c-0.1-0.1-0.2-0.1-0.3-0.2c-0.1-0.1-0.2-0.1-0.3-0.2C64.2,61,64.1,61,64.1,61c0.1-0.1,0.2-0.1,0.3-0.2c0.1-0.1,0.2-0.2,0.2-0.2
			h-1.4c0.1,0.2,0.1,0.3,0.2,0.4c0.1,0.1,0.1,0.3,0.2,0.4l-0.8,0.4h2v3.7h-2.8v1.4c0.2,0,0.5-0.1,0.7-0.1c0.2,0,0.5-0.1,0.7-0.1
			c-0.1-0.1-0.2-0.2-0.3-0.4c-0.1-0.1-0.2-0.2-0.3-0.3l1-0.5c0.2,0.2,0.3,0.4,0.4,0.5c0.1,0.2,0.3,0.4,0.4,0.6
			c0.1,0.2,0.2,0.4,0.3,0.6c0.1,0.2,0.2,0.4,0.2,0.5l-1,0.5c0-0.1-0.1-0.2-0.1-0.3c-0.1-0.1-0.1-0.2-0.2-0.4
			c-0.7,0.1-1.3,0.2-1.9,0.3c-0.6,0.1-1.2,0.2-1.7,0.3l-0.2-1.1c0.2,0,0.5-0.1,0.7-0.1v-5.3h1.8c-0.1-0.2-0.1-0.4-0.2-0.6
			c-0.1-0.2-0.2-0.4-0.3-0.6h-0.1c-0.3,0.5-0.6,0.9-0.9,1.2c-0.1-0.1-0.1-0.1-0.2-0.2c-0.1-0.1-0.2-0.1-0.3-0.2
			c-0.1-0.1-0.2-0.1-0.3-0.2C60,61.1,59.9,61,59.9,61c0.3-0.3,0.6-0.6,0.9-1c0.3-0.4,0.5-0.8,0.7-1.3l1.2,0.3c0,0.1-0.1,0.2-0.1,0.3
			c0,0.1-0.1,0.2-0.2,0.3h2.3v0.8c0.2-0.3,0.4-0.5,0.6-0.8c0.2-0.3,0.3-0.6,0.4-0.9l1.2,0.3c0,0.1-0.1,0.2-0.1,0.3
			c0,0.1-0.1,0.2-0.1,0.3h3V60.5z M63.5,62.6h-1.7v0.5h1.7V62.6z M63.5,64.5V64h-1.7v0.5H63.5z"/>
	</g>
</g>
<g>
	<g>
		<path d="M74,87.5v5.2c0,0.4-0.1,0.7-0.3,0.8c-0.1,0-0.1,0.1-0.2,0.1c-0.2,0.1-0.7,0.2-1.4,0.2c-0.1,0-0.1,0-0.2,0
			c-0.1-0.3-0.2-0.6-0.4-0.9c0.1,0,0.2,0,0.3,0c0.1,0,0.2,0,0.3,0c0.1,0,0.2,0,0.3,0c0.1,0,0.1,0,0.2,0h0.1c0.1,0,0.2,0,0.2-0.1
			c0,0,0,0,0-0.1v-1h-3.1c-0.2,0.9-0.6,1.6-1.2,2.1c-0.1-0.2-0.3-0.3-0.6-0.5c0,0-0.1-0.1-0.1-0.1c0.7-0.6,1.1-1.5,1.2-2.6
			c0-0.2,0-0.5,0-0.7v-2.4H74z M70.2,90.9h2.9V90h-2.9C70.2,90.3,70.2,90.6,70.2,90.9z M73.1,88.3h-2.9v0.9h2.9V88.3z"/>
	</g>
	<g>
		<path d="M44.1,83.5v2.9h5.4v7h-8l-0.7-1.5h5.8v-4h-5.4V82h2.9v1.2L45,82h4.6v1.5H44.1z"/>
		<path d="M51.3,88.5h4.4V90h-4.4V88.5z"/>
		<path d="M62.5,93.4h-3.2l3.6-9.9h-5.6V82H66v1.8L62.5,93.4z"/>
	</g>
</g>
</svg>
